<svg width="48" height="72" viewBox="0 0 48 72" fill="none" xmlns="http://www.w3.org/2000/svg">
<path d="M48 11.9996C48 5.37242 42.6276 0 36.0004 0H12.2467C5.6195 0 0.247086 5.37242 0.247086 11.9996C0.247086 18.6269 5.6195 23.9993 12.2467 23.9993H36.0004C42.6276 23.9993 48 18.6269 48 11.9996Z" fill="#F2321E"/>
<path d="M48 11.9996C48 5.37242 42.6276 0 36.0004 0H24.1235V23.9993H36.0004C42.6276 23.9993 48 18.6269 48 11.9996Z" fill="#FF6C5C"/>
<ellipse rx="11.9382" ry="11.9996" transform="matrix(-1 0 0 1 36.0608 35.9979)" fill="#1ABDFF"/>
<path fill-rule="evenodd" clip-rule="evenodd" d="M12.1846 72C5.5918 72 0.24707 66.6276 0.24707 60.0004C0.24707 53.3732 5.5918 48.0007 12.1846 48.0007H24.123V60.0004C24.123 66.6276 18.7783 72 12.1846 72Z" fill="#3ED67E"/>
<path fill-rule="evenodd" clip-rule="evenodd" d="M11.9385 47.9989C5.3457 47.9989 0.000976562 42.6265 0.000976562 35.9993C0.000976562 29.3721 5.3457 23.9996 11.9385 23.9996H24.123V47.9989H11.9385Z" fill="#943FFF"/>
</svg>